<svg xmlns="http://www.w3.org/2000/svg" viewBox="0 0 1600 1200" role="img" aria-label="Medical abstract background">
  <defs>
    <linearGradient id="g1" x1="0" y1="0" x2="1" y2="1">
      <stop offset="0%" stop-color="#0d2f36"/>
      <stop offset="100%" stop-color="#051821"/>
    </linearGradient>
    <radialGradient id="r1" cx="25%" cy="20%" r="60%">
      <stop offset="0%" stop-color="#7cf0dc" stop-opacity="0.40"/>
      <stop offset="100%" stop-color="#7cf0dc" stop-opacity="0"/>
    </radialGradient>
    <radialGradient id="r2" cx="78%" cy="18%" r="45%">
      <stop offset="0%" stop-color="#19b7a7" stop-opacity="0.26"/>
      <stop offset="100%" stop-color="#19b7a7" stop-opacity="0"/>
    </radialGradient>
    <pattern id="grid" width="80" height="80" patternUnits="userSpaceOnUse">
      <path d="M80 0H0V80" fill="none" stroke="#ffffff" stroke-opacity="0.05" stroke-width="1"/>
    </pattern>
  </defs>
  <rect width="1600" height="1200" fill="url(#g1)"/>
  <rect width="1600" height="1200" fill="url(#grid)"/>
  <circle cx="300" cy="220" r="320" fill="url(#r1)"/>
  <circle cx="1320" cy="180" r="260" fill="url(#r2)"/>
  <circle cx="1100" cy="940" r="360" fill="#ffd166" fill-opacity="0.05"/>
  <g opacity="0.22" stroke="#7cf0dc" stroke-width="6" fill="none">
    <path d="M180 760 C260 700, 340 700, 420 760 S580 820, 660 760 S820 700, 900 760" />
    <path d="M980 560 C1060 500, 1140 500, 1220 560 S1380 620, 1460 560" />
  </g>
  <g transform="translate(1070 250)" opacity="0.85">
    <rect x="0" y="0" width="240" height="240" rx="46" fill="#ffffff" fill-opacity="0.06"/>
    <path d="M102 48h36v54h54v36h-54v54h-36v-54H48v-36h54z" fill="#ffffff" fill-opacity="0.85"/>
  </g>
</svg>
